<svg width="667" height="470" viewBox="0 0 667 470" fill="none" xmlns="http://www.w3.org/2000/svg">
<path d="M546.65 449.45L539.715 447.602L543.909 411.282L554.143 414.008L546.65 449.45Z" fill="#FFB6B6"/>
<path d="M519.272 458.817C518.97 460.14 519.551 461.456 520.57 461.757L534.251 465.791C534.251 465.791 537.001 460.039 543.095 459.011L541.465 467.919L548.522 470L550.897 455.604C550.897 455.604 554.513 448.594 551.476 443.569C548.438 438.545 551.491 440.02 551.491 440.02L551.948 430.811L540.958 429.091L537.741 442.81L529.451 454.924L520.887 456.946C520.125 457.126 519.49 457.861 519.272 458.817Z" fill="#2F2E41"/>
<path d="M613.127 440.88L606.802 444.603L589.198 413.917L598.531 408.423L613.127 440.88Z" fill="#FFB6B6"/>
<path d="M597.694 468.232C598.222 469.46 599.417 470.03 600.363 469.505L613.063 462.457C613.063 462.457 611.86 456.055 615.9 450.77L619.761 458.741L626.312 455.105L619.876 442.415C619.876 442.415 618.609 434.418 613.426 432.847C608.244 431.276 611.406 430.139 611.406 430.139L606.482 422.807L597.151 429.624L602.56 442.422L603.197 457.751L597.85 465.617C597.374 466.317 597.313 467.345 597.694 468.232Z" fill="#2F2E41"/>
<path d="M242.216 305.982H426.024C428.338 305.982 430.214 303.85 430.214 301.221V5.65212C430.214 3.0224 428.338 0.890587 426.024 0.890587H242.216C239.902 0.890587 238.026 3.0224 238.026 5.65212V301.221C238.026 303.85 239.902 305.982 242.216 305.982Z" fill="white"/>
<path d="M430.998 306.873H237.243V0H430.998V306.873ZM238.81 305.092H429.43V1.78128H238.81V305.092Z" fill="#E6E6E6"/>
<path d="M387.455 49.1597C388.201 49.1597 388.806 49.8468 388.806 50.6943V53.7635C388.806 54.611 388.201 55.298 387.455 55.298H280.786C280.041 55.298 279.436 54.611 279.436 53.7635V50.6943C279.436 49.8468 280.041 49.1597 280.786 49.1597H387.455Z" fill="#E6E6E6"/>
<path d="M387.455 63.736C388.201 63.736 388.806 64.423 388.806 65.2705V68.3397C388.806 69.1872 388.201 69.8742 387.455 69.8742H280.786C280.041 69.8742 279.436 69.1872 279.436 68.3397V65.2705C279.436 64.423 280.041 63.736 280.786 63.736H387.455Z" fill="#E6E6E6"/>
<path d="M387.455 78.3131C388.201 78.3131 388.806 79.0001 388.806 79.8476V82.9168C388.806 83.7643 388.201 84.4514 387.455 84.4514H280.786C280.041 84.4514 279.436 83.7643 279.436 82.9168V79.8485C279.436 79.001 280.041 78.314 280.786 78.314L387.455 78.3131Z" fill="#6C63FF"/>
<path d="M583.791 116.556H619.223C619.171 114.664 619.525 112.786 620.254 111.084C620.275 112.973 620.64 114.836 621.327 116.556H622.936C625.398 116.553 627.393 114.286 627.395 111.488V85.3231C627.394 72.5121 617.755 53.3075 607.282 61.3438C606.944 61.3237 601.634 58.6514 601.296 58.6514C592.082 58.6599 588.914 68.1089 586.131 78.0908C582.961 76.4304 580.776 83.361 579.196 95.5596C578.734 99.1194 578.325 103.128 577.957 107.502C576.941 111.173 578.736 115.084 581.966 116.238C582.557 116.449 583.173 116.558 583.793 116.559L583.791 116.556Z" fill="#2F2E41"/>
<path d="M514.261 266.142C512.505 270.874 513.229 275.74 515.879 277.01C518.529 278.281 522.1 275.474 523.857 270.74C524.581 268.86 524.899 266.81 524.784 264.762L532.005 244.605L523.609 240.955L517.379 261.215C516.008 262.55 514.938 264.24 514.259 266.141L514.261 266.142Z" fill="#FFB6B6"/>
<path d="M591.896 107.699L608.832 111.725L606.234 120.581L611.43 188.313L602.771 210.122L549.952 205.202L562.94 175.681C562.94 175.681 557.744 151.081 564.672 146.16C571.6 141.238 582.856 116.638 582.856 116.638L591.896 107.699Z" fill="#6C63FF"/>
<path d="M607.683 115.642L622.687 122.545L617.492 209.136L628.748 283.918L592.381 290.807C592.381 290.807 596.71 125.497 599.307 122.545C601.905 119.593 607.683 115.638 607.683 115.638V115.642Z" fill="#2F2E41"/>
<path d="M578.298 126.441C578.298 126.441 568.536 119.422 563.262 124.619C557.987 129.817 517.379 255.446 517.379 255.446L528.332 260.854L553.452 201.001L578.298 126.441Z" fill="#2F2E41"/>
<path d="M550.332 338.111L540.428 424.632L554.283 425.616C554.283 425.616 561.486 403.279 569.704 376.968C571.454 371.388 573.245 365.632 575.021 359.866C576.943 353.609 578.857 347.35 580.675 341.309C585.169 326.412 589.109 312.852 591.36 303.996C591.749 302.442 592.095 301.036 592.381 299.795C598.439 273.345 601.905 204.224 601.905 204.224L551.683 199.304L551.147 200.062L540.428 215.284L540.93 218.501L554.283 303.606L550.335 338.115L550.332 338.111Z" fill="#2F2E41"/>
<path d="M554.28 303.605L550.332 338.114L568.092 373.644L569.701 376.97L594.154 427.468L606.233 419.684C606.233 419.684 590.518 378.642 580.672 341.309C579.581 337.206 578.568 333.142 577.659 329.186C574.983 317.604 579.364 296.469 577.65 290.643C571.858 270.983 552.981 231.653 544.218 213.836L540.927 218.5L554.28 303.605Z" fill="#2F2E41"/>
<path d="M583.074 115.897L565.541 123.533L519.648 276.051L547.357 280.972L560.345 192.413L583.074 115.897Z" fill="#2F2E41"/>
<path d="M626.922 280.527C627.368 285.638 630.05 289.52 632.912 289.197C635.774 288.873 637.732 284.469 637.286 279.356C637.132 277.311 636.549 275.338 635.587 273.601L633.456 251.973L624.546 253.325L627.592 274.503C626.949 276.421 626.719 278.487 626.922 280.527Z" fill="#FFB6B6"/>
<path d="M616.624 122.549C616.624 122.549 627.881 119.597 631.344 126.486C634.808 133.374 636.54 267.196 636.54 267.196L624.629 268.18L618.357 202.255L616.625 122.552L616.624 122.549Z" fill="#2F2E41"/>
<path d="M602.258 105.312C612.199 105.312 620.258 96.1545 620.258 84.858C620.258 73.5615 612.199 64.4039 602.258 64.4039C592.318 64.4039 584.259 73.5615 584.259 84.858C584.259 96.1545 592.318 105.312 602.258 105.312Z" fill="#FFB6B6"/>
<path d="M609.484 116.555H618.373C618.824 116.555 619.208 116.159 619.23 115.646L619.232 115.59C619.28 114.521 620.6 114.341 620.906 115.353C621.029 115.76 621.17 116.161 621.327 116.555H622.201V85.0207C622.201 79.6121 618.343 75.2275 613.583 75.2275C609.52 75.2275 606.008 78.4533 605.157 82.9686C605.157 82.9686 599.116 91.3886 602.676 96.1224C606.237 100.856 601.057 104.709 601.057 104.709C599.907 110.806 603.997 116.555 609.484 116.555Z" fill="#2F2E41"/>
<path d="M314.763 153.286C316.758 151.825 317.178 148.696 315.783 146.514L309.246 136.294C307.72 133.904 304.778 133.373 302.675 135.108C302.489 135.262 302.312 135.431 302.148 135.614C291.08 142.337 285.123 152.156 291.747 163.764C291.747 165.702 291.871 167.638 292.119 169.556C292.227 170.388 292.473 171.202 292.891 171.896C294.131 173.957 296.32 174.714 298.246 174.001L308.936 170.054C311.208 169.215 312.437 166.397 311.598 163.857C310.514 160.573 310.961 156.073 314.763 153.286Z" fill="#F2F2F2"/>
<path d="M340.134 183.435C337.059 183.089 334.433 185.97 334.433 189.482V199.961C334.433 200.232 334.451 200.504 334.488 200.772C334.883 203.692 337.287 205.695 339.856 205.246C354.837 207.344 365.075 199.941 365.691 183.698C365.789 183.47 365.873 183.234 365.942 182.993C366.74 180.186 365.385 177.175 362.915 176.268L353.965 172.964C350.877 171.823 347.668 174.101 347.128 177.739C346.64 181.026 344.731 183.95 340.134 183.435Z" fill="#E6E6E6"/>
<path d="M284.799 193.681C287.906 214.635 304.085 222.585 320.959 223.841C321.29 223.899 321.623 223.928 321.958 223.928C325.597 223.93 328.549 220.579 328.551 216.443V198.921C328.551 194.02 325.016 190.202 320.703 190.153C316.533 190.105 313.816 187.863 312.7 183.747C311.424 179.044 306.878 176.565 302.76 178.086L288.685 183.283C286.862 183.956 285.386 185.496 284.643 187.504C283.903 189.491 283.96 191.746 284.799 193.681Z" fill="#3F3D56"/>
<path d="M371.509 121.227C368.911 118.335 364.743 118.385 362.199 121.336C361.972 121.599 361.763 121.88 361.573 122.178L349.067 141.739C347.468 144.24 348.382 147.725 350.882 148.946C356.736 151.807 356.121 158.228 354.215 162.158C353.281 164.084 354.051 166.494 355.892 167.174L376.966 174.956C380.433 176.228 384.151 174.065 385.271 170.125C385.383 169.728 385.467 169.321 385.52 168.909C385.882 166.167 386.064 163.399 386.064 160.626C389.628 145.519 384.696 131.279 371.509 121.227Z" fill="#6C63FF"/>
<path d="M335.318 143.908C337.653 145.402 340.599 144.68 342.174 142.216L346.364 135.663C347.178 134.393 347.46 132.781 347.137 131.253C346.825 129.754 345.949 128.485 344.742 127.782C334.883 117.66 323.214 117.038 313.319 127.731C312.075 128.444 311.17 129.742 310.843 131.281C310.52 132.798 310.8 134.4 311.608 135.661L316.504 143.319C318.186 145.949 321.443 146.637 323.761 144.731C327.128 141.961 332.019 141.798 335.318 143.908Z" fill="#E6E6E6"/>
<path d="M280.12 275.913C280.496 274.103 282.263 273.509 283.708 273.577C284.62 273.647 285.525 273.81 286.412 274.063C287.34 274.299 288.26 274.579 289.174 274.875C290.851 275.418 292.511 276.075 294.215 276.5C295.645 276.945 297.151 276.97 298.592 276.573C299.978 276.141 301.069 274.925 301.476 273.358C301.89 271.861 301.294 270.244 300.065 269.528C298.928 268.816 297.498 269.286 296.871 270.579C296.862 270.598 296.853 270.617 296.844 270.636C296.317 272.23 296.731 274.029 297.876 275.126C298.463 275.753 299.107 276.308 299.796 276.783C300.495 277.324 301.273 277.72 302.094 277.952C303.49 278.372 304.965 277.718 305.741 276.334C305.896 276.002 305.988 275.639 306.014 275.265C306.055 274.756 305.356 274.759 305.315 275.265C305.197 276.722 303.696 277.402 302.572 277.244C301.814 277.101 301.09 276.782 300.446 276.306C299.824 275.894 299.235 275.422 298.685 274.894C297.733 273.957 296.84 272.417 297.48 270.955C297.977 270.016 299.051 269.713 299.877 270.279C299.988 270.354 300.09 270.443 300.184 270.544C301.184 271.474 301.005 273.16 300.346 274.265C299.554 275.418 298.331 276.08 297.044 276.054C295.687 276.057 294.338 275.816 293.047 275.341C291.436 274.822 289.842 274.241 288.224 273.751C287.306 273.473 286.38 273.223 285.445 273.028C284.561 272.806 283.652 272.735 282.75 272.816C281.226 272.897 279.907 274.048 279.444 275.699C279.343 276.199 280.017 276.411 280.12 275.913Z" fill="#3F3D56"/>
<path d="M307.801 255.205C308.012 255.205 308.183 255.892 308.183 256.739V259.809C308.183 260.656 308.012 261.343 307.801 261.343H277.651C277.441 261.343 277.27 260.657 277.27 259.809V256.739C277.27 255.892 277.441 255.205 277.651 255.205H307.801Z" fill="#E6E6E6"/>
<path d="M388.424 255.205C388.635 255.205 388.806 255.892 388.806 256.739V259.809C388.806 260.656 388.635 261.343 388.424 261.343H358.275C358.064 261.343 357.893 260.657 357.893 259.809V256.739C357.893 255.892 358.064 255.205 358.275 255.205H388.424Z" fill="#E6E6E6"/>
<path d="M375 272.492L369.015 274.74L366.023 275.864C365.104 276.31 364.109 276.518 363.11 276.473C362.373 276.417 361.725 275.895 361.435 275.123C361.307 274.349 361.6 273.564 362.178 273.129C363.606 271.895 365.411 273.151 366.424 274.429C367.662 275.993 368.362 278.012 369.523 279.649C370.556 281.119 371.866 282.306 373.357 283.123C376.336 284.802 379.889 284.457 382.574 282.228C385.729 279.462 386.051 274.669 386.067 270.487C386.055 270.086 385.758 269.772 385.405 269.786C385.069 269.799 384.799 270.106 384.787 270.487C384.772 274.277 384.583 278.923 381.542 281.294C378.629 283.567 374.802 282.964 372.119 280.543C370.736 279.144 369.586 277.475 368.724 275.614C367.766 273.833 366.577 272.113 364.774 271.422C363.18 270.764 361.399 271.471 360.513 273.114C359.749 274.575 360.172 276.463 361.458 277.331C361.558 277.398 361.661 277.458 361.767 277.51C363.857 278.642 366.248 277.316 368.26 276.56L375.342 273.9C376.121 273.608 375.787 272.203 375.002 272.498L375 272.492Z" fill="#6C63FF"/>
<path d="M68.876 464.375L76.8555 464.295L80.3827 429.281L68.6057 429.399L68.876 464.375Z" fill="#FFB6B6"/>
<path d="M96.2132 463.898C96.4653 464.371 96.6082 465.904 96.6124 466.457C96.6255 468.157 95.4236 469.547 93.9278 469.562L69.2163 469.807C68.1959 469.817 67.3615 468.885 67.3526 467.726L67.3436 466.557C67.3436 466.557 66.0941 463.055 68.5777 458.699C68.5777 458.699 71.7318 462.059 76.3651 456.701L77.7217 453.85L87.7628 462.043L93.2991 462.762C94.5104 462.919 95.5817 462.713 96.2132 463.898Z" fill="#2F2E41"/>
<path d="M99.2332 434.146L106.815 436.974L120.024 405.089L108.835 400.914L99.2332 434.146Z" fill="#FFB6B6"/>
<path d="M125.265 443.643C125.37 444.183 125.073 445.688 124.921 446.213C124.455 447.828 122.924 448.708 121.503 448.177L98.0244 439.416C97.0549 439.054 96.527 437.867 96.8454 436.766L97.1664 435.655C97.1664 435.655 96.9697 431.883 100.55 428.66C100.55 428.66 102.591 432.991 108.49 429.602L110.579 427.395L117.782 438.811L122.824 441.507C123.927 442.096 125 442.291 125.265 443.643Z" fill="#2F2E41"/>
<path d="M109.938 231.127L125.881 289.216L144.571 341.422L116.241 416.543L100.479 409.564L114.586 344.547L90.4706 296.002L79.074 441.732L65.2099 439.845L47.1836 265.28L50.0107 227.32L109.938 231.127Z" fill="#2F2E41"/>
<path d="M93.627 98.8655L76.4017 94.1406L71.6498 106.966C71.6498 106.966 48.3732 111.434 47.1834 131.684C47.1834 131.684 42.5444 158.265 45.514 165.69C48.4836 173.115 55.8047 199.373 55.8047 199.373C55.8047 199.373 44.213 232.086 47.1834 234.108C50.1538 236.129 113.802 243.501 113.802 239.451C113.802 235.402 114.529 187.286 114.529 187.286L112.037 114.388L96.0033 107.641L93.627 98.8655Z" fill="#E6E6E6"/>
<path d="M90.7119 95.6039C100.298 95.6039 108.07 86.7726 108.07 75.8785C108.07 64.9845 100.298 56.1531 90.7119 56.1531C81.1252 56.1531 73.3538 64.9845 73.3538 75.8785C73.3538 86.7726 81.1252 95.6039 90.7119 95.6039Z" fill="#FFB6B6"/>
<path d="M79.2179 78.8107C80.6033 79.6719 79.2903 83.7865 80.1561 84.1419C81.1569 84.5526 84.804 79.8318 84.8475 74.5457C84.8607 72.9459 84.5365 72.1778 84.8475 70.2808C85.2543 67.7994 86.5044 64.8724 87.6624 64.9496C88.3488 64.9954 89.0195 66.0979 89.0698 67.0821C89.1403 68.4614 87.9614 69.0048 88.1315 69.7477C88.4554 71.1627 93.4067 72.1379 95.1686 69.7477C96.5499 67.8738 95.4891 64.5851 96.1068 64.4165C96.5622 64.2922 97.0516 66.1028 98.9217 68.1483C99.6262 68.919 100.674 70.0651 101.267 69.7477C102.125 69.289 101.501 66.0588 101.736 66.0159C101.932 65.9803 102.055 68.2509 103.144 70.2808C104.543 72.8888 107.428 74.8982 108.774 74.0126C109.598 73.4701 109.663 71.9605 109.712 70.8139C109.815 68.3985 112.903 62.8413 112.103 60.2576C110.475 54.9992 107.689 58.7074 106.428 56.9528C104.721 54.5775 103.19 55.8556 100.329 53.221C97.534 50.6473 97.5089 48.0594 95.6377 47.8898C93.9525 47.7371 93.3539 49.78 91.4155 49.4892C89.7734 49.2428 89.4156 47.6587 88.1315 47.8898C86.9559 48.1015 86.8788 49.4972 85.3167 50.0223C84.3194 50.3575 84.1001 49.8729 82.971 50.0223C80.6216 50.333 79.0442 52.7654 78.7487 53.221C77.6097 54.9775 78.0521 55.7178 76.8722 57.4859C75.8547 59.0107 73.5988 58.3643 72.7509 59.1259C69.9803 61.6147 68.7909 66.203 68.7685 71.432C68.7528 75.0892 69.173 76.9369 70.1108 81.5528C70.8228 85.0578 74.1176 89.5863 75.9339 91.6055C76.4214 92.1476 77.7882 93.667 78.7487 93.2049C79.6589 92.767 79.6859 90.7991 79.687 90.5393C79.6908 89.6457 79.4811 88.5401 77.8105 85.7412C76.0556 82.8013 75.3587 82.466 75.4648 81.4763C75.6522 79.7269 78.1136 78.1243 79.2179 78.8107Z" fill="#2F2E41"/>
<path d="M30.1312 275.561C29.5267 281.297 31.6405 286.301 34.8525 286.738C38.0645 287.175 41.1584 282.88 41.7629 277.144C42.0275 274.633 41.7711 272.263 41.1299 270.354L43.423 246.013L33.3485 245.034L32.1572 269.133C31.1375 270.815 30.3958 273.05 30.1312 275.561Z" fill="#FFB6B6"/>
<path d="M59.1401 113.914C59.1401 113.914 53.9206 113.997 50.4623 121.666C48.6245 125.741 36.6792 198.781 36.6792 198.781L33.3233 221.882L35.048 225.703C32.3063 230.468 31.5516 236.364 32.9848 241.819L29.7061 264.389L45.1238 264.484L57.1558 205.359L67.2727 171.069L59.1401 113.914Z" fill="#E6E6E6"/>
<path d="M137.908 274.67C138.513 280.406 136.399 285.41 133.187 285.847C129.975 286.284 126.881 281.989 126.277 276.253C126.012 273.743 126.269 271.372 126.91 269.463L124.617 245.123L134.691 244.143L135.882 268.242C136.902 269.925 137.644 272.16 137.908 274.67Z" fill="#FFB6B6"/>
<path d="M108.9 113.024C108.9 113.024 114.119 113.106 117.578 120.775C119.415 124.85 131.361 197.891 131.361 197.891L134.716 220.992L132.992 224.812C135.733 229.577 136.488 235.473 135.055 240.929L138.334 263.499L122.916 263.593L110.884 204.468L100.767 170.178L108.9 113.024Z" fill="#E6E6E6"/>
<path d="M580.623 81.8206C581.263 83.0117 584.66 78.654 589.877 78.1734C591.205 78.048 594.199 83.8267 597.633 83.9103C599.91 83.9625 601.311 83.9416 604.114 83.9103C607.427 83.8684 608.334 83.7849 608.974 82.8654C610.213 81.0788 609.192 77.9025 609.784 77.6413C610.278 77.4219 611.558 79.3862 612.214 81.8206C613.591 86.9298 608.65 94.0451 608.164 100.627C607.645 107.722 612.748 94.1286 612.214 100.627C611.614 107.941 609.468 107.387 609.492 110.031C609.5 110.428 609.589 110.773 609.784 111.076C609.954 111.347 610.124 111.452 613.024 112.121C616.491 112.925 618.232 113.322 618.694 113.165C619.885 112.768 621.092 110.564 621.934 108.986C623.327 106.405 622.339 109.007 621.934 105.852C621.545 102.801 620.33 102.404 620.314 99.5827C620.298 96.0302 622.218 94.9541 623.554 91.2241C626.025 84.3282 623.611 76.3457 622.744 73.462C622.328 72.0791 621.573 70.3288 620.25 67.437C619.187 65.1154 617.777 63.0703 616.058 61.538C613.481 59.2413 610.487 57.6677 607.251 57.0441C605.478 56.7026 603.671 56.8819 601.928 57.4221L597.414 58.8212C595.516 59.4093 593.727 60.4752 592.15 61.9577C590.68 61.964 589.405 63.1896 588.901 64.971C588.848 65.1574 588.8 65.266 588.761 65.25C580.623 61.9689 580.628 71.687 580.718 77.7578C580.727 78.3792 580.709 78.929 580.647 79.3757V79.4071C580.485 80.6086 580.445 81.4863 580.623 81.8206Z" fill="#2F2E41"/>
<path d="M474.841 135.491H389.171V137.273H474.841V135.491Z" fill="#3F3D56"/>
<path d="M492.083 147.934C486.033 147.934 481.111 142.341 481.111 135.465C481.111 128.59 486.033 122.996 492.083 122.996C498.134 122.996 503.056 128.59 503.056 135.465C503.056 142.341 498.134 147.934 492.083 147.934ZM492.083 124.777C486.898 124.777 482.678 129.572 482.678 135.465C482.678 141.358 486.898 146.153 492.083 146.153C497.269 146.153 501.488 141.358 501.488 135.465C501.488 129.572 497.269 124.777 492.083 124.777Z" fill="#3F3D56"/>
<path d="M492.083 141.7C495.113 141.7 497.57 138.908 497.57 135.465C497.57 132.022 495.113 129.231 492.083 129.231C489.053 129.231 486.597 132.022 486.597 135.465C486.597 138.908 489.053 141.7 492.083 141.7Z" fill="#6C63FF"/>
<path d="M279.143 201.399H193.474V203.18H279.143V201.399Z" fill="#3F3D56"/>
<path d="M165.259 201.373C165.259 194.497 170.181 188.904 176.231 188.904C182.281 188.904 187.204 194.497 187.204 201.373C187.204 208.248 182.281 213.841 176.231 213.841C170.181 213.841 165.259 208.248 165.259 201.373ZM166.826 201.373C166.826 207.266 171.045 212.06 176.231 212.06C181.417 212.06 185.636 207.266 185.636 201.373C185.636 195.479 181.417 190.685 176.231 190.685C171.045 190.685 166.826 195.479 166.826 201.373Z" fill="#3F3D56"/>
<path d="M176.231 207.607C179.261 207.607 181.717 204.816 181.717 201.373C181.717 197.929 179.261 195.138 176.231 195.138C173.201 195.138 170.745 197.929 170.745 201.373C170.745 204.816 173.201 207.607 176.231 207.607Z" fill="#6C63FF"/>
</svg>
